<svg width="63" height="53" viewBox="0 0 63 53" fill="none" xmlns="http://www.w3.org/2000/svg">
<path fill-rule="evenodd" clip-rule="evenodd" d="M61.9673 51.2048L32.5038 0.596189C32.2897 0.229537 31.8955 0.00488281 31.4674 0.00488281C31.0478 0.00488281 30.6557 0.229537 30.448 0.596189L0.971687 51.2048C0.75551 51.5757 0.747033 52.0292 0.95897 52.4022C1.17727 52.771 1.56723 52.9999 1.99323 52.9999H60.9416C61.3675 52.9999 61.766 52.771 61.9758 52.4022C62.0754 52.2157 62.1326 52.008 62.1326 51.8067C62.1348 51.5969 62.0775 51.3892 61.9673 51.2048ZM35.4957 17.9669L34.5166 38.0862H29.4534L28.4763 17.9669H35.4957ZM31.8939 48.3859H31.9829C34.3842 48.3859 35.9419 46.6544 35.9398 44.3443C35.8953 41.9452 34.3375 40.3026 31.9829 40.3026C29.6283 40.3026 27.9879 41.9473 27.9879 44.3443C27.9879 46.6544 29.5859 48.3859 31.8939 48.3859Z" fill="#FA4659"/>
</svg>
