<svg height="512pt" viewBox="0 -72 512.00101 512" width="512pt" xmlns="http://www.w3.org/2000/svg"><path d="m63.652344 296.535156h224.40625v15.105469h-224.40625zm0 0"/><path d="m272.03125 232.417969h16.027344v15.105469h-16.027344zm0 0"/><path d="m207.914062 232.417969h16.027344v15.105469h-16.027344zm0 0"/><path d="m463.914062 175.855469h-15.105468c0-39.140625-23.34375-74.164063-59.46875-89.230469l5.8125-13.941406c41.769531 17.417968 68.761718 57.917968 68.761718 103.171875zm0 0"/><path d="m15.105469 15.105469h248.910156v-15.105469h-264.015625v367.738281h111.742188v-15.101562h-96.636719zm0 0"/><path d="m359.726562 24.226562v-24.226562h-71.667968v15.105469h56.5625v337.53125h-208.835938v15.105469h223.941406v-24.222657c33.09375-1.519531 64.253907-13.007812 90.535157-33.472656l-9.277344-11.917969c-23.605469 18.378906-51.558594 28.761719-81.257813 30.265625v-89.410156c27.117188-3.699219 48.085938-26.996094 48.085938-55.113281 0-28.117188-20.96875-51.414063-48.085938-55.113282v-89.414062c76.304688 3.945312 137.167969 67.261719 137.167969 144.527344 0 36.929687-13.917969 72.09375-39.195312 99.019531l11.011719 10.339844c27.917968-29.738281 43.289062-68.574219 43.289062-109.359375 0-85.597656-67.636719-155.6875-152.273438-159.644532zm32.980469 159.644532c0 19.769531-14.230469 36.265625-32.980469 39.816406v-79.636719c18.75 3.550781 32.980469 20.050781 32.980469 39.820313zm0 0"/><path d="m136.246094 168.8125c-6.746094-5.328125-15.257813-8.523438-24.503906-8.523438-21.839844 0-39.613282 17.769532-39.613282 39.609376 0 21.84375 17.769532 39.613281 39.613282 39.613281 21.839843 0 39.609374-17.769531 39.609374-39.613281v-136.707032h89.082032v57.535156c-6.746094-5.328124-15.257813-8.523437-24.503906-8.523437-21.84375 0-39.609376 17.769531-39.609376 39.609375s17.765626 39.609375 39.609376 39.609375c21.839843 0 39.609374-17.769531 39.609374-39.609375v-103.726562h-119.292968zm79.683594 7.503906c-13.511719 0-24.507813-10.992187-24.507813-24.503906s10.996094-24.503906 24.507813-24.503906c13.511718 0 24.503906 10.992187 24.503906 24.503906s-10.992188 24.503906-24.503906 24.503906zm-104.1875 48.085938c-13.515626 0-24.507813-10.992188-24.507813-24.503906 0-13.511719 10.992187-24.503907 24.507813-24.503907 13.511718 0 24.503906 10.992188 24.503906 24.503907 0 13.511718-10.992188 24.503906-24.503906 24.503906zm0 0"/><path d="m63.652344 264.476562h224.40625v15.105469h-224.40625zm0 0"/><path d="m239.972656 232.417969h16.027344v15.105469h-16.027344zm0 0"/><path d="m448.347656 192.347656h16.027344v15.101563h-16.027344zm0 0"/><path d="m432.316406 208.375h16.03125v15.105469h-16.03125zm0 0"/></svg>