<svg width="61" height="49" viewBox="0 0 61 49" fill="none" xmlns="http://www.w3.org/2000/svg">
<path d="M37.3458 10.7829H23.1455V17.2976H37.3458V10.7829Z" fill="#FC8943"/>
<path d="M37.3468 1.23547H23.1465V7.75018H37.3468V1.23547Z" fill="#FC8943"/>
<path d="M37.3458 20.3303H23.1455V26.7327H37.3458V20.3303Z" fill="#FC8943"/>
<path d="M56.3541 29.8777H42.042V36.3924H56.3541V29.8777Z" fill="#FFC46A"/>
<path d="M56.3541 20.3303H42.042V26.7327H56.3541V20.3303Z" fill="#FFC46A"/>
<path d="M56.3551 10.7829H42.043V17.2976H56.3551V10.7829Z" fill="#FFC46A"/>
<path d="M37.3458 29.8777H23.1455V36.3924H37.3458V29.8777Z" fill="#FC8943"/>
<path d="M18.6734 20.3303H4.36133V26.7327H18.6734V20.3303Z" fill="#71D2E2"/>
<path d="M18.6734 29.8777H4.36133V36.3924H18.6734V29.8777Z" fill="#71D2E2"/>
<path d="M59.5965 40.4361H1.11816V46.9508H59.5965V40.4361Z" fill="#FFC46A"/>
<path d="M5.47943 37.4033H17.5553C18.7852 37.4033 19.7915 36.3924 19.7915 35.1568V30.8886C19.7915 29.653 18.7852 28.6421 17.5553 28.6421H5.47943C4.24948 28.6421 3.24316 29.653 3.24316 30.8886V35.1568C3.24316 36.3924 4.24948 37.4033 5.47943 37.4033ZM5.47943 31.0009H17.5553V35.2692H5.47943V31.0009Z" fill="#061935"/>
<path d="M5.47943 27.8559H17.5553C18.7852 27.8559 19.7915 26.845 19.7915 25.6094V21.4535C19.7915 20.218 18.7852 19.207 17.5553 19.207H5.47943C4.24948 19.207 3.24316 20.218 3.24316 21.4535V25.6094C3.24316 26.845 4.24948 27.8559 5.47943 27.8559ZM5.47943 21.4535H17.5553V25.7218H5.47943V21.4535Z" fill="#061935"/>
<path d="M24.2636 37.4033H36.3394C37.5694 37.4033 38.5757 36.3924 38.5757 35.1568V30.8886C38.5757 29.653 37.5694 28.6421 36.3394 28.6421H24.2636C23.0337 28.6421 22.0273 29.653 22.0273 30.8886V35.1568C22.0273 36.3924 23.0337 37.4033 24.2636 37.4033ZM24.2636 31.0009H36.3394V35.2692H24.2636V31.0009Z" fill="#061935"/>
<path d="M24.2636 27.8559H36.3394C37.5694 27.8559 38.5757 26.845 38.5757 25.6094V21.4535C38.5757 20.218 37.5694 19.207 36.3394 19.207H24.2636C23.0337 19.207 22.0273 20.218 22.0273 21.4535V25.6094C22.0273 26.845 23.0337 27.8559 24.2636 27.8559ZM24.2636 21.4535H36.3394V25.7218H24.2636V21.4535Z" fill="#061935"/>
<path d="M24.2636 18.3084H36.3394C37.5694 18.3084 38.5757 17.2975 38.5757 16.062V11.7937C38.5757 10.5582 37.5694 9.54729 36.3394 9.54729H24.2636C23.0337 9.54729 22.0273 10.5582 22.0273 11.7937V16.062C22.0273 17.2975 23.0337 18.3084 24.2636 18.3084ZM24.2636 11.9061H36.3394V16.1743H24.2636V11.9061Z" fill="#061935"/>
<path d="M24.2636 8.76106H36.3394C37.5694 8.76106 38.5757 7.75015 38.5757 6.5146V2.24635C38.5757 1.0108 37.5694 -0.000106812 36.3394 -0.000106812H24.2636C23.0337 -0.000106812 22.0273 1.0108 22.0273 2.24635V6.5146C22.0273 7.75015 23.0337 8.76106 24.2636 8.76106ZM24.2636 2.35867H36.3394V6.62693H24.2636V2.35867Z" fill="#061935"/>
<path d="M43.1601 37.4033H55.2359C56.4659 37.4033 57.4722 36.3924 57.4722 35.1568V30.8886C57.4722 29.653 56.4659 28.6421 55.2359 28.6421H43.1601C41.9301 28.6421 40.9238 29.653 40.9238 30.8886V35.1568C40.9238 36.3924 41.9301 37.4033 43.1601 37.4033ZM43.1601 31.0009H55.2359V35.2692H43.1601V31.0009Z" fill="#061935"/>
<path d="M43.1601 27.8559H55.2359C56.4659 27.8559 57.4722 26.845 57.4722 25.6094V21.4535C57.4722 20.218 56.4659 19.207 55.2359 19.207H43.1601C41.9301 19.207 40.9238 20.218 40.9238 21.4535V25.6094C40.9238 26.845 41.9301 27.8559 43.1601 27.8559ZM43.1601 21.4535H55.2359V25.7218H43.1601V21.4535Z" fill="#061935"/>
<path d="M43.1601 18.3084H55.2359C56.4659 18.3084 57.4722 17.2975 57.4722 16.062V11.7937C57.4722 10.5582 56.4659 9.54729 55.2359 9.54729H43.1601C41.9301 9.54729 40.9238 10.5582 40.9238 11.7937V16.062C40.9238 17.2975 41.9301 18.3084 43.1601 18.3084ZM43.1601 11.9061H55.2359V16.1743H43.1601V11.9061Z" fill="#061935"/>
<path d="M58.3665 39.3129H2.23627C1.00632 39.3129 0 40.3238 0 41.5593V45.8276C0 47.0631 1.00632 48.074 2.23627 48.074H58.4783C59.7083 48.074 60.7146 47.0631 60.7146 45.8276V41.5593C60.6028 40.3238 59.5965 39.3129 58.3665 39.3129ZM2.23627 45.7153V41.447H58.4783V45.7153H2.23627Z" fill="#061935"/>
</svg>
