<svg width="61" height="54" viewBox="0 0 61 54" fill="none" xmlns="http://www.w3.org/2000/svg">
<path d="M10.2372 52.7157L9.88419 52.5981L9.06055 52.3628V32.2448L10.1195 31.8918H10.3549H14.4731L14.8261 32.0095L15.5321 32.2448V52.3628L14.4731 52.7157H14.2378H10.2372Z" fill="#FFC46A"/>
<path d="M2.47204 45.5391C1.76605 45.5391 1.17773 44.9509 1.17773 44.245V40.3626C1.17773 39.6567 1.76605 39.0684 2.47204 39.0684H7.88458C8.59056 39.0684 9.17888 39.6567 9.17888 40.3626V44.245C9.17888 44.9509 8.59056 45.5391 7.88458 45.5391H2.47204Z" fill="#FFC46A"/>
<path d="M52.9496 45.5392C52.2436 45.5392 51.6553 45.0686 51.6553 44.3627C51.6553 44.3627 51.6553 44.3627 51.6553 44.245V40.4802C51.6553 39.7744 52.2436 39.1861 52.9496 39.1861H58.3621C59.0681 39.1861 59.6564 39.7744 59.6564 40.4802V44.3627C59.6564 45.0686 59.0681 45.6568 58.3621 45.6568H52.9496V45.5392Z" fill="#FFC46A"/>
<path d="M8.58984 12.0092L9.29583 11.068C14.3554 4.59735 22.1212 0.950237 30.3577 1.06789C38.5942 0.950237 46.36 4.59735 51.4195 11.068L52.1255 12.0092L47.4189 15.6564L46.713 14.9505C42.3594 10.7151 36.4762 8.36212 30.4753 8.36212C24.3568 8.24447 18.4736 10.5975 14.12 14.9505L13.4141 15.6564L8.58984 12.0092Z" fill="#71D2E2"/>
<path d="M46.2416 52.7159L46.0063 52.5982L45.1826 52.3629V32.2449L46.1239 31.892H46.4769H50.5952L50.8305 32.0096L51.5365 32.2449V52.3629L50.5952 52.7159H50.3598H46.2416Z" fill="#FFC46A"/>
<path d="M58.2437 37.892H56.714V23.4212C56.714 19.1859 55.4197 14.9505 52.9488 11.5387C52.9488 11.5387 52.9488 11.5387 52.9488 11.421C47.7716 4.12679 39.2998 -0.22622 30.3573 0.00907799C21.4148 -0.108571 12.943 4.12679 7.76582 11.3034C7.76582 11.3034 7.76582 11.3034 7.76582 11.421C5.29488 14.9505 4.00057 19.1859 4.00057 23.4212V37.892H2.47094C1.05898 37.892 0 38.9509 0 40.3627V44.2451C0 45.6569 1.05898 46.7157 2.47094 46.7157H8.00115V51.657C8.00115 52.9511 9.17779 53.8923 10.4721 53.8923H14.2373C15.5316 54.0099 16.7083 52.9511 16.7083 51.657C16.7083 51.657 16.7083 51.657 16.7083 51.5393V32.9508C16.7083 31.6566 15.5316 30.5978 14.2373 30.7154H10.3544C9.06012 30.5978 8.00115 31.6566 7.88348 32.9508V37.892H6.35385V23.4212C6.35385 20.0094 7.29516 16.7152 9.06012 13.8917L12.7077 16.7152C13.1784 17.0682 13.8843 17.0682 14.355 16.5976C18.4732 12.1269 24.3564 9.53864 30.475 9.65629C36.5935 9.53864 42.4767 12.1269 46.5949 16.5976C46.8302 16.8329 47.1832 16.9505 47.5362 16.9505C47.7716 16.9505 48.0069 16.8329 48.2422 16.7152L51.8898 13.8917C53.6548 16.8329 54.4784 20.127 54.5961 23.5389V38.0097H52.7134V33.0684C52.7134 31.7743 51.6545 30.8331 50.3602 30.8331H46.4773C45.183 30.7154 44.124 31.7743 44.0063 33.0684V51.657C44.0063 52.9511 45.183 54.0099 46.4773 53.8923H50.3602C51.6545 53.8923 52.7134 52.8334 52.7134 51.657V46.7157H58.2437C59.6556 46.7157 60.7146 45.6569 60.7146 44.2451V40.4803C60.7146 39.0685 59.6556 38.0097 58.2437 37.892ZM10.2368 44.2451V33.0684H10.3544H14.1197H14.2373V51.5393H14.1197H10.3544H10.2368V44.2451ZM7.88348 40.245C8.00115 40.245 8.00115 40.245 8.00115 40.3627V44.2451C8.00115 44.3627 8.00115 44.3627 7.88348 44.3627H2.47094C2.35328 44.3627 2.35328 44.3627 2.35328 44.2451V40.4803C2.35328 40.3627 2.35328 40.3627 2.47094 40.3627L7.88348 40.245ZM47.5362 14.1269C42.9473 9.65629 36.8288 7.18566 30.3573 7.18566C24.0034 7.06801 17.7673 9.53864 13.1784 14.1269L10.2368 11.774C15.1786 5.77387 22.5915 2.24441 30.3573 2.36206C38.1231 2.24441 45.5359 5.77388 50.4778 11.8916L47.5362 14.1269ZM50.3602 40.3627V51.5393H50.2425H46.4773H46.3596V33.0684H46.4773H50.3602H50.4778L50.3602 40.3627ZM58.3613 44.2451C58.3613 44.2451 58.2437 44.3627 58.3613 44.2451L52.9488 44.3627C52.8311 44.3627 52.8311 44.3627 52.8311 44.2451V40.3627C52.8311 40.245 52.8311 40.245 52.9488 40.245H58.3613C58.479 40.245 58.479 40.245 58.479 40.3627L58.3613 44.2451Z" fill="#061935"/>
</svg>
