<svg width="19" height="19" viewBox="0 0 19 19" fill="none" xmlns="http://www.w3.org/2000/svg">
<path d="M18.8733 0.0857685C18.7929 0.0204768 18.6867 -0.00923271 18.5794 0.0025129L7.03037 1.38815C6.84484 1.4106 6.70588 1.55673 6.70588 1.7305V3.80913V5.2642V14.0333C6.02561 13.2751 4.94484 12.7817 3.72549 12.7817C1.67125 12.7817 0 14.1764 0 15.8909C0 17.6054 1.67125 19 3.72549 19C5.77973 19 7.45098 17.6054 7.45098 15.8909C7.45098 15.8107 7.4439 15.732 7.43645 15.6535C7.44129 15.6311 7.45098 15.6107 7.45098 15.5872V5.56786L18.2549 4.27135V10.5784C17.5746 9.82046 16.4939 9.32714 15.2745 9.32714C13.2203 9.32714 11.549 10.7218 11.549 12.4363C11.549 14.1508 13.2203 15.5454 15.2745 15.5454C17.3101 15.5454 18.9676 14.1753 18.9974 12.4822C18.9974 12.4777 19 12.4739 19 12.4694V3.87822V2.42349V0.345208C19 0.245716 18.9538 0.15106 18.8733 0.0857685Z" fill="#F0B902"/>
</svg>
