<svg id="Capa_1" enable-background="new 0 0 512 512" height="512" viewBox="0 0 512 512" width="512" xmlns="http://www.w3.org/2000/svg"><g><path d="m492.5 443.5h-473c-10.752 0-19.5-8.748-19.5-19.5v-336c0-10.752 8.748-19.5 19.5-19.5h116.5c4.143 0 7.5 3.358 7.5 7.5s-3.357 7.5-7.5 7.5h-116.5c-2.439 0-4.5 2.061-4.5 4.5v160.5h23.5v-.948c0-4.142 3.357-7.5 7.5-7.5s7.5 3.358 7.5 7.5v.948h15v-12.429c0-4.142 3.357-7.5 7.5-7.5s7.5 3.358 7.5 7.5v12.429h15v-91.412c0-4.142 3.357-7.5 7.5-7.5s7.5 3.358 7.5 7.5v91.412h15v-126.101c0-4.142 3.357-7.5 7.5-7.5s7.5 3.358 7.5 7.5v126.101h15v-61.305c0-4.142 3.357-7.5 7.5-7.5s7.5 3.358 7.5 7.5v61.305h15v-15.482c0-4.142 3.357-7.5 7.5-7.5s7.5 3.358 7.5 7.5v15.482h15v-70.414c0-4.142 3.357-7.5 7.5-7.5s7.5 3.358 7.5 7.5v70.414h15v-20.946c0-4.142 3.357-7.5 7.5-7.5s7.5 3.358 7.5 7.5v20.946h15v-100.22c0-4.142 3.357-7.5 7.5-7.5s7.5 3.358 7.5 7.5v100.22h15v-123.937c0-4.142 3.357-7.5 7.5-7.5s7.5 3.358 7.5 7.5v123.937h15v-41.801c0-4.142 3.357-7.5 7.5-7.5s7.5 3.358 7.5 7.5v41.801h15v-16.643c0-4.142 3.357-7.5 7.5-7.5s7.5 3.358 7.5 7.5v16.643h15v-28.528c0-4.142 3.357-7.5 7.5-7.5s7.5 3.358 7.5 7.5v28.528h15v-.366c0-4.142 3.357-7.5 7.5-7.5s7.5 3.358 7.5 7.5v.366h15v-.366c0-4.142 3.357-7.5 7.5-7.5s7.5 3.358 7.5 7.5v.366h31c4.143 0 7.5 3.358 7.5 7.5v168c0 10.752-8.748 19.5-19.5 19.5zm-477.5-180v160.5c0 2.439 2.061 4.5 4.5 4.5h473c2.439 0 4.5-2.061 4.5-4.5v-160.5h-23.5v.366c0 4.142-3.357 7.5-7.5 7.5s-7.5-3.358-7.5-7.5v-.366h-15v.366c0 4.142-3.357 7.5-7.5 7.5s-7.5-3.358-7.5-7.5v-.366h-15v28.528c0 4.142-3.357 7.5-7.5 7.5s-7.5-3.358-7.5-7.5v-28.528h-15v16.643c0 4.142-3.357 7.5-7.5 7.5s-7.5-3.358-7.5-7.5v-16.643h-15v41.801c0 4.142-3.357 7.5-7.5 7.5s-7.5-3.358-7.5-7.5v-41.801h-15v123.938c0 4.142-3.357 7.5-7.5 7.5s-7.5-3.358-7.5-7.5v-123.938h-15v100.22c0 4.142-3.357 7.5-7.5 7.5s-7.5-3.358-7.5-7.5v-100.22h-15v20.946c0 4.142-3.357 7.5-7.5 7.5s-7.5-3.358-7.5-7.5v-20.946h-15v70.414c0 4.142-3.357 7.5-7.5 7.5s-7.5-3.358-7.5-7.5v-70.414h-15v15.482c0 4.142-3.357 7.5-7.5 7.5s-7.5-3.358-7.5-7.5v-15.482h-15v61.305c0 4.142-3.357 7.5-7.5 7.5s-7.5-3.358-7.5-7.5v-61.305h-15v126.101c0 4.142-3.357 7.5-7.5 7.5s-7.5-3.358-7.5-7.5v-126.101h-15v91.412c0 4.142-3.357 7.5-7.5 7.5s-7.5-3.358-7.5-7.5v-91.412h-15v12.429c0 4.142-3.357 7.5-7.5 7.5s-7.5-3.358-7.5-7.5v-12.429h-15v.948c0 4.142-3.357 7.5-7.5 7.5s-7.5-3.358-7.5-7.5v-.948zm489.5-30c-4.143 0-7.5-3.358-7.5-7.5v-138c0-2.439-2.061-4.5-4.5-4.5h-326.5c-4.143 0-7.5-3.358-7.5-7.5s3.357-7.5 7.5-7.5h326.5c10.752 0 19.5 8.748 19.5 19.5v138c0 4.142-3.357 7.5-7.5 7.5z"/></g></svg>