<svg width="70" height="50" viewBox="0 0 70 50" fill="none" xmlns="http://www.w3.org/2000/svg">
<path d="M34.5171 13.2083C35.6231 13.2083 36.5196 12.3107 36.5196 11.2034C36.5196 10.0962 35.6231 9.19861 34.5171 9.19861C33.4112 9.19861 32.5146 10.0962 32.5146 11.2034C32.5146 12.3107 33.4112 13.2083 34.5171 13.2083Z" fill="white"/>
<path d="M34.6349 33.964C36.3264 33.964 37.6976 32.5912 37.6976 30.8978C37.6976 29.2044 36.3264 27.8316 34.6349 27.8316C32.9435 27.8316 31.5723 29.2044 31.5723 30.8978C31.5723 32.5912 32.9435 33.964 34.6349 33.964Z" fill="white"/>
<path d="M45.8256 45.5212H42.5273V47.7619H45.8256V45.5212Z" fill="white"/>
<path d="M26.8607 45.5213H23.5625V47.762H26.8607V45.5213Z" fill="white"/>
<path d="M34.5168 17.6896C30.9829 17.6896 28.0381 14.7413 28.0381 11.2034C28.0381 7.66546 30.9829 4.71719 34.5168 4.71719C38.0506 4.71719 40.9954 7.66546 40.9954 11.2034C40.9954 14.7413 38.0506 17.6896 34.5168 17.6896ZM34.5168 9.19856C33.4566 9.19856 32.5143 10.142 32.5143 11.2034C32.5143 12.2648 33.4566 13.2082 34.5168 13.2082C35.5769 13.2082 36.5193 12.2648 36.5193 11.2034C36.5193 10.142 35.5769 9.19856 34.5168 9.19856Z" fill="#71D2E2"/>
<path d="M34.6349 40.8039C29.0986 40.8039 24.7402 36.3225 24.7402 30.8977C24.7402 25.4729 29.2164 20.9916 34.6349 20.9916C40.0535 20.9916 44.5297 25.4729 44.5297 30.8977C44.5297 36.4405 40.1713 40.8039 34.6349 40.8039ZM34.6349 27.8315C32.9858 27.8315 31.5723 29.2467 31.5723 30.8977C31.5723 32.5488 32.9858 33.9639 34.6349 33.9639C36.2841 33.9639 37.6976 32.5488 37.6976 30.8977C37.6976 29.2467 36.2841 27.8315 34.6349 27.8315Z" fill="#71D2E2"/>
<path d="M20.5 45.0495V1.17931H48.7706V45.0495H20.5ZM34.6353 20.9916C29.099 20.9916 24.7406 25.473 24.7406 30.8978C24.7406 36.3226 29.2168 40.804 34.6353 40.804C40.0538 40.804 44.53 36.3226 44.53 30.8978C44.53 25.3551 40.1716 20.9916 34.6353 20.9916ZM34.5175 4.71722C30.9837 4.71722 28.0388 7.66549 28.0388 11.2034C28.0388 14.7413 30.9837 17.6896 34.5175 17.6896C38.0513 17.6896 40.9962 14.7413 40.9962 11.2034C40.9962 7.66549 38.0513 4.71722 34.5175 4.71722Z" fill="#FFC46A"/>
<path d="M17.4369 11.3214C18.0259 11.0855 18.2615 10.3779 18.0259 9.78828C17.7903 9.19863 17.0835 8.96277 16.4946 9.19863C16.4946 9.19863 16.4946 9.19863 16.3768 9.19863C13.7853 10.6138 12.1362 13.3262 12.254 16.2745C12.1362 19.2227 13.7853 21.9351 16.3768 23.3503C16.9657 23.5862 17.6725 23.3503 17.9081 22.7606C18.1437 22.171 17.9081 21.4634 17.3191 21.2276C15.5522 20.2841 14.4921 18.2793 14.4921 16.2745C14.4921 14.2696 15.67 12.3828 17.4369 11.3214Z" fill="#061935"/>
<path d="M12.9604 25.473C10.0155 23.3503 8.36641 19.9303 8.36641 16.2745C8.24861 12.6186 10.0155 9.19862 12.9604 7.07587C13.5494 6.72208 13.6671 6.01449 13.3138 5.42484C12.9604 4.83519 12.2536 4.71726 11.6646 5.07105C8.01302 7.66552 5.89273 11.7931 6.01052 16.1565C5.89273 20.52 8.01302 24.7655 11.6646 27.242C12.2536 27.5958 12.9604 27.4779 13.3138 26.8882C13.6671 26.5344 13.4316 25.8268 12.9604 25.473Z" fill="#061935"/>
<path d="M2.24178 16.2745C2.12398 11.2034 4.59766 6.36828 8.72046 3.42001C9.30943 3.06622 9.42722 2.35864 9.07384 1.76899C8.72046 1.17933 8.01369 1.0614 7.42472 1.41519C2.59516 4.83518 -0.114107 10.3779 0.00368748 16.2745C-0.114107 22.171 2.71295 27.7137 7.42472 31.1337C8.01369 31.4875 8.72046 31.2516 9.07384 30.662C9.42722 30.1903 9.19163 29.4827 8.72046 29.1289C4.59766 26.1806 2.12398 21.4634 2.24178 16.2745Z" fill="#061935"/>
<path d="M52.8931 9.19862C52.3042 8.84483 51.5974 9.08069 51.3618 9.67035C51.1262 10.26 51.244 10.9676 51.833 11.2034C51.833 11.2034 51.833 11.2034 51.9508 11.2034C53.7177 12.1469 54.8956 14.1517 54.7778 16.1565C54.8956 18.1614 53.7177 20.0482 51.9508 21.1096C51.3618 21.3455 51.1262 22.0531 51.3618 22.6427C51.5974 23.2324 52.3042 23.4682 52.8931 23.2324C55.4846 21.8172 57.0159 19.1048 57.0159 16.1565C57.0159 13.3262 55.4846 10.6138 52.8931 9.19862Z" fill="#061935"/>
<path d="M57.6047 5.18895C57.0158 4.83516 56.309 4.95309 55.9556 5.54274C55.6022 6.1324 55.72 6.83998 56.309 7.19377C59.2538 9.31653 60.903 12.7365 60.903 16.3924C61.0208 20.0482 59.2538 23.4682 56.309 25.591C55.72 25.9447 55.6022 26.6523 55.9556 27.242C56.309 27.8316 57.0158 27.9496 57.6047 27.5958C61.2564 25.0013 63.2589 20.8737 63.2589 16.5103C63.3766 11.911 61.2564 7.78343 57.6047 5.18895Z" fill="#061935"/>
<path d="M61.9631 1.41521C61.3742 1.06142 60.6674 1.17935 60.314 1.769C59.9606 2.35865 60.0784 3.06624 60.6674 3.42003C64.7902 6.3683 67.1461 11.2035 67.0283 16.2745C67.1461 21.3455 64.7902 26.1806 60.6674 29.1289C60.0784 29.4827 59.9606 30.1903 60.314 30.7799C60.6674 31.3696 61.3742 31.4875 61.9631 31.1337C66.7927 27.7137 69.502 22.171 69.3842 16.2745C69.502 10.4959 66.6749 4.8352 61.9631 1.41521Z" fill="#061935"/>
<path d="M47.7107 1.52588e-05H21.5604C20.3824 1.52588e-05 19.3223 1.06139 19.3223 2.2407V43.9881C19.3223 45.1674 20.3824 46.2288 21.5604 46.2288H22.0315V48.3516C22.0315 49.0592 22.5027 49.5309 23.2095 49.5309H27.0967C27.8034 49.5309 28.2746 49.0592 28.2746 48.3516V46.2288H40.9964V48.3516C40.9964 49.0592 41.4676 49.5309 42.1743 49.5309H46.0615C46.7683 49.5309 47.2395 49.0592 47.2395 48.3516V46.2288H47.9463C49.1242 46.2288 50.1843 45.1674 50.1843 43.9881V2.2407C49.9488 1.06139 49.0064 1.52588e-05 47.7107 1.52588e-05ZM25.8009 47.1723H24.2696V46.2288H25.8009V47.1723ZM44.648 47.1723H43.1167V46.2288H44.648V47.1723ZM47.5929 43.8702H21.6782V2.35863H47.5929V43.8702Z" fill="#061935"/>
<path d="M34.517 18.8689C38.7576 18.8689 42.1736 15.449 42.1736 11.2035C42.1736 6.95795 38.7576 3.53796 34.517 3.53796C30.2764 3.53796 26.8604 6.95795 26.8604 11.2035C26.8604 15.449 30.2764 18.8689 34.517 18.8689ZM34.517 5.89658C37.4618 5.89658 39.8177 8.25519 39.8177 11.2035C39.8177 14.1517 37.4618 16.5103 34.517 16.5103C31.5721 16.5103 29.2162 14.1517 29.2162 11.2035C29.2162 8.25519 31.5721 5.89658 34.517 5.89658Z" fill="#061935"/>
<path d="M34.6352 41.9834C40.7605 41.9834 45.7078 37.0303 45.7078 30.8979C45.7078 24.7655 40.7605 19.8124 34.6352 19.8124C28.5099 19.8124 23.5625 24.7655 23.5625 30.8979C23.5625 37.0303 28.5099 41.9834 34.6352 41.9834ZM34.6352 22.171C39.4647 22.171 43.3519 26.0627 43.3519 30.8979C43.3519 35.733 39.4647 39.6248 34.6352 39.6248C29.8056 39.6248 25.9184 35.733 25.9184 30.8979C25.9184 26.0627 29.8056 22.171 34.6352 22.171Z" fill="#061935"/>
<path d="M34.6341 35.1433C36.99 35.1433 38.8747 33.2564 38.8747 30.8978C38.8747 28.5392 36.99 26.6523 34.6341 26.6523C32.2783 26.6523 30.3936 28.5392 30.3936 30.8978C30.3936 33.2564 32.2783 35.1433 34.6341 35.1433ZM34.6341 29.0109C35.6943 29.0109 36.5189 29.8364 36.5189 30.8978C36.5189 31.9592 35.6943 32.7847 34.6341 32.7847C33.574 32.7847 32.7494 31.9592 32.7494 30.8978C32.7494 29.8364 33.574 29.0109 34.6341 29.0109Z" fill="#061935"/>
<path d="M34.5174 14.5054C36.2843 14.5054 37.6978 13.0903 37.6978 11.3213C37.6978 9.55236 36.2843 8.13719 34.5174 8.13719C32.7504 8.13719 31.3369 9.55236 31.3369 11.3213C31.3369 12.9723 32.7504 14.5054 34.5174 14.5054ZM34.5174 10.3779C34.9885 10.3779 35.3419 10.7317 35.3419 11.2034C35.3419 11.6751 34.9885 12.0289 34.5174 12.0289C34.0462 12.0289 33.6928 11.6751 33.6928 11.2034C33.6928 10.7317 34.0462 10.3779 34.5174 10.3779Z" fill="#061935"/>
<path d="M23.0912 43.3984C23.5466 43.3984 23.9157 43.0288 23.9157 42.5729C23.9157 42.117 23.5466 41.7474 23.0912 41.7474C22.6358 41.7474 22.2666 42.117 22.2666 42.5729C22.2666 43.0288 22.6358 43.3984 23.0912 43.3984Z" fill="#061935"/>
<path d="M46.0609 43.3984C46.5163 43.3984 46.8854 43.0288 46.8854 42.5729C46.8854 42.117 46.5163 41.7474 46.0609 41.7474C45.6055 41.7474 45.2363 42.117 45.2363 42.5729C45.2363 43.0288 45.6055 43.3984 46.0609 43.3984Z" fill="#061935"/>
<path d="M23.0912 4.83519C23.5466 4.83519 23.9157 4.46559 23.9157 4.00967C23.9157 3.55375 23.5466 3.18416 23.0912 3.18416C22.6358 3.18416 22.2666 3.55375 22.2666 4.00967C22.2666 4.46559 22.6358 4.83519 23.0912 4.83519Z" fill="#061935"/>
<path d="M46.0609 4.83519C46.5163 4.83519 46.8854 4.46559 46.8854 4.00967C46.8854 3.55375 46.5163 3.18416 46.0609 3.18416C45.6055 3.18416 45.2363 3.55375 45.2363 4.00967C45.2363 4.46559 45.6055 4.83519 46.0609 4.83519Z" fill="#061935"/>
<path d="M23.0912 22.6427C23.5466 22.6427 23.9157 22.2731 23.9157 21.8172C23.9157 21.3613 23.5466 20.9917 23.0912 20.9917C22.6358 20.9917 22.2666 21.3613 22.2666 21.8172C22.2666 22.2731 22.6358 22.6427 23.0912 22.6427Z" fill="#061935"/>
<path d="M46.0609 22.6427C46.5163 22.6427 46.8854 22.2731 46.8854 21.8172C46.8854 21.3613 46.5163 20.9917 46.0609 20.9917C45.6055 20.9917 45.2363 21.3613 45.2363 21.8172C45.2363 22.2731 45.6055 22.6427 46.0609 22.6427Z" fill="#061935"/>
</svg>
