<svg width="92" height="92" viewBox="0 0 92 92" fill="none" xmlns="http://www.w3.org/2000/svg">
<path d="M45.9999 0.666687C37.0338 0.666687 28.269 3.32544 20.814 8.30673C13.359 13.288 7.54849 20.3681 4.11732 28.6517C0.686146 36.9353 -0.211605 46.0503 1.53759 54.8441C3.28679 63.6379 7.60437 71.7155 13.9443 78.0555C20.2843 84.3955 28.362 88.7131 37.1558 90.4623C45.9496 92.2115 55.0646 91.3137 63.3482 87.8826C71.6318 84.4514 78.7119 78.6409 83.6931 71.1859C88.6744 63.7308 91.3332 54.9661 91.3332 46C91.3332 33.9769 86.557 22.4462 78.0554 13.9445C69.5537 5.44286 58.023 0.666687 45.9999 0.666687ZM75.6082 30.785L38.3782 67.9867L16.3915 46C15.6401 45.2486 15.2179 44.2294 15.2179 43.1667C15.2179 42.104 15.6401 41.0848 16.3915 40.3334C17.143 39.5819 18.1621 39.1597 19.2249 39.1597C20.2876 39.1597 21.3067 39.5819 22.0582 40.3334L38.4349 56.71L69.9982 25.175C70.3703 24.8029 70.812 24.5078 71.2981 24.3064C71.7843 24.1051 72.3053 24.0014 72.8315 24.0014C73.3577 24.0014 73.8788 24.1051 74.3649 24.3064C74.8511 24.5078 75.2928 24.8029 75.6648 25.175C76.0369 25.5471 76.3321 25.9888 76.5334 26.475C76.7348 26.9611 76.8385 27.4822 76.8385 28.0084C76.8385 28.5345 76.7348 29.0556 76.5334 29.5417C76.3321 30.0279 76.0369 30.4696 75.6648 30.8417L75.6082 30.785Z" fill="#F2C94C"/>
</svg>
